<?xml version="1.0" encoding="utf-8"?><svg xmlns="http://www.w3.org/2000/svg" xmlns:xlink="http://www.w3.org/1999/xlink"><symbol viewBox="0 0 477.175 477.175" id="back" xmlns="http://www.w3.org/2000/svg"><path d="M145.188 238.575l215.5-215.5c5.3-5.3 5.3-13.8 0-19.1s-13.8-5.3-19.1 0l-225.1 225.1c-5.3 5.3-5.3 13.8 0 19.1l225.1 225c2.6 2.6 6.1 4 9.5 4s6.9-1.3 9.5-4c5.3-5.3 5.3-13.8 0-19.1l-215.4-215.5z"/></symbol><symbol viewBox="0 0 512 512" id="email-envelope-outline" xmlns="http://www.w3.org/2000/svg"><path d="M0 64v384h512V64H0zm256 202.938L56.578 96h398.859L256 266.938zm0 42.124l62.406-53.469L458.75 416H53.266L193.61 255.594 256 309.062zm224 82.657L342.688 234.781 480 117.063v274.656zM169.313 234.75L32 391.688V117.063L169.313 234.75z"/></symbol><symbol viewBox="0 0 486.392 486.392" id="facebook-logo-button" xmlns="http://www.w3.org/2000/svg"><path d="M243.196 0C108.891 0 0 108.891 0 243.196s108.891 243.196 243.196 243.196 243.196-108.891 243.196-243.196C486.392 108.861 377.501 0 243.196 0zm62.866 243.165l-39.854.03-.03 145.917h-54.689V243.196H175.01v-50.281l36.479-.03-.061-29.609c0-41.039 11.126-65.997 59.431-65.997h40.249v50.311h-25.171c-18.817 0-19.729 7.022-19.729 20.124l-.061 25.171h45.234l-5.319 50.28z"/></symbol><symbol viewBox="0 0 485.213 485.213" id="magnifier" xmlns="http://www.w3.org/2000/svg"><path d="M471.882 407.567L360.567 296.243a214.267 214.267 0 0 1-64.331 64.321L407.56 471.888c17.772 17.768 46.587 17.768 64.321 0 17.773-17.739 17.773-46.554.001-64.321zM363.909 181.955C363.909 81.473 282.44 0 181.956 0 81.474 0 .001 81.473.001 181.955s81.473 181.951 181.955 181.951c100.484 0 181.953-81.469 181.953-181.951zM181.956 318.416c-75.252 0-136.465-61.208-136.465-136.46 0-75.252 61.213-136.465 136.465-136.465 75.25 0 136.468 61.213 136.468 136.465 0 75.252-61.218 136.46-136.468 136.46z"/><path d="M75.817 181.955h30.322c0-41.803 34.014-75.814 75.816-75.814V75.816c-58.517 0-106.138 47.621-106.138 106.139z"/></symbol><symbol viewBox="0 0 477.175 477.175" id="next" xmlns="http://www.w3.org/2000/svg"><path d="M360.731 229.075l-225.1-225.1c-5.3-5.3-13.8-5.3-19.1 0s-5.3 13.8 0 19.1l215.5 215.5-215.5 215.5c-5.3 5.3-5.3 13.8 0 19.1 2.6 2.6 6.1 4 9.5 4 3.4 0 6.9-1.3 9.5-4l225.1-225.1c5.3-5.2 5.3-13.8.1-19z"/></symbol><symbol viewBox="0 0 485.213 485.212" id="padlock-security-tool" xmlns="http://www.w3.org/2000/svg"><path d="M106.139 168.451v-31.984C106.139 61.215 167.354 0 242.606 0s136.47 61.215 136.47 136.467v31.984c-11.225 2.31-21.506 7.105-30.331 13.803v-45.787c0-58.52-47.618-106.141-106.139-106.141S136.465 77.947 136.465 136.467v45.787c-8.823-6.697-19.086-11.493-30.326-13.803zm288.096 13.504v151.63c0 83.75-67.878 151.628-151.629 151.628S90.978 417.334 90.978 333.584v-151.63c33.493 0 60.651 27.158 60.651 60.651h181.958c-.001-33.492 27.157-60.65 60.648-60.65zM272.933 333.584c0-16.765-13.562-30.327-30.326-30.327-16.762 0-30.324 13.562-30.324 30.327 0 11.103 6.277 20.404 15.161 25.673v50.139c0 8.382 6.781 15.163 15.164 15.163 8.382 0 15.163-6.781 15.163-15.163v-50.139c8.885-5.268 15.162-14.57 15.162-25.673z"/></symbol><symbol viewBox="0 0 477.156 477.156" id="phone-call-auricular-symbol-in-black" xmlns="http://www.w3.org/2000/svg"><path d="M475.009 380.316l-2.375-7.156c-5.625-16.719-24.062-34.156-41-38.75l-62.688-17.125c-17-4.625-41.25 1.594-53.688 14.031l-22.688 22.688c-82.453-22.28-147.109-86.938-169.359-169.375L145.9 161.94c12.438-12.438 18.656-36.656 14.031-53.656l-17.094-62.719c-4.625-16.969-22.094-35.406-38.781-40.969L96.9 2.19c-16.719-5.563-40.563.063-53 12.5L9.962 48.659C3.899 54.69.024 71.94.024 72.003c-1.187 107.75 41.063 211.562 117.281 287.781 76.031 76.031 179.454 118.219 286.891 117.313.562 0 18.312-3.813 24.375-9.845l33.938-33.938c12.437-12.436 18.062-36.279 12.5-52.998z"/></symbol><symbol viewBox="0 0 468.792 468.792" id="social-instagram-circle" xmlns="http://www.w3.org/2000/svg"><path d="M234.396 0C104.946 0 0 104.946 0 234.396s104.946 234.396 234.396 234.396 234.396-104.946 234.396-234.396C468.792 104.914 363.846 0 234.396 0zm146.485 370.329c0 5.816-4.736 10.552-10.615 10.552H98.462c-5.816 0-10.584-4.704-10.584-10.552V98.462c0-5.816 4.736-10.584 10.584-10.584h271.804c5.848 0 10.615 4.736 10.615 10.584v271.867zM175.789 234.396c0-32.355 26.252-58.607 58.607-58.607s58.607 26.252 58.607 58.607-26.252 58.607-58.607 58.607-58.607-26.253-58.607-58.607zm117.214-117.214h58.607v58.607h-58.607v-58.607zm26.633 102.562h31.973v131.834H117.214V219.744h32.005c-1.24 5.88-1.971 8.422-1.971 14.652 0 48.119 39.124 87.179 87.179 87.179 48.119 0 87.179-39.061 87.179-87.179-.031-6.23-.73-8.772-1.97-14.652z"/></symbol><symbol viewBox="0 0 865.5 865.5" id="telescope" xmlns="http://www.w3.org/2000/svg"><path d="M366.59 865.5h10c13.8 0 25-11.199 25-25V548.9l181.5 289.6c7.3 11.699 22.8 15.199 34.5 7.9l8.5-5.301c11.7-7.299 15.2-22.799 7.9-34.5l-200-319c8.5-12.199 13.399-27.1 13.399-43.1 0-16.1-5.1-31.1-13.6-43.4l-137.3 33.8c-.4 3.199-.601 6.4-.601 9.699 0 16 5 30.801 13.4 43.1l-200 319c-7.3 11.701-3.8 27.102 7.9 34.5l8.5 5.301c11.7 7.301 27.1 3.801 34.5-7.9L341.59 548.9v291.6c0 13.801 11.201 25 25 25zM68.09 420.9c1.1 0 116.8-28.2 116.8-28.2-13.5-22.3-24.9-50.8-32.3-81.2-7.5-30.6-10.5-60.9-8.8-87l-113.6 27.8c-18.2 4.5-23.8 45.7-12.4 92.2 10.601 43.7 32.501 76.4 50.3 76.4zm286-286.6l-154.6 37.8c-5.7 1.4-10.6 5.3-14.5 11.3-3 4.6-5.5 10.4-7.4 17.2-1.4 4.9-2.4 10.3-3.1 16.2-3 23.8-.9 54.7 7.2 87.4 8 32.7 20.4 61.101 34 80.8 3.4 4.9 6.8 9.2 10.3 12.9 4.8 5.2 9.7 9.2 14.5 11.9 4.5 2.5 9 3.899 13.3 3.899 1.6 0 3.2-.2 4.7-.6L406.09 377l7.7-1.899c-22.6-30.7-40.2-73.6-50.7-116.4-10.8-44.1-14.1-87.7-9.399-122.7.199-.501.3-1.101.399-1.701zm498.8 139.8l-62.399-255c-2.8-11.4-13-19.1-24.3-19.1-2 0-4 .2-6 .7l-345.4 84.6c-4.1 1-7.8 3-11.2 6-4.899 4.3-9.1 10.6-12.399 18.5-2.101 5-3.801 10.6-5.2 16.7-7.101 31.2-5.5 76.6 6.399 125.2 12.2 49.7 32.4 91.5 53.601 115.601 4.3 4.8 8.6 9 12.899 12.3 1.101.899 2.4 1.7 3.7 2.399 9.601 5.5 21.101 7 31.9 4.301l340.1-82.101c13.4-3.2 21.6-16.7 18.299-30.1z"/></symbol><symbol viewBox="0 0 486.392 486.392" id="twitter" xmlns="http://www.w3.org/2000/svg"><path d="M243.196 0C108.891 0 0 108.891 0 243.196s108.891 243.196 243.196 243.196 243.196-108.891 243.196-243.196C486.392 108.861 377.501 0 243.196 0zm120.99 188.598l.182 7.752c0 79.16-60.221 170.359-170.359 170.359-33.804 0-65.268-9.91-91.776-26.904 4.682.547 9.454.851 14.288.851 28.059 0 53.868-9.576 74.357-25.627-26.204-.486-48.305-17.814-55.935-41.586 3.678.699 7.387 1.034 11.278 1.034 5.472 0 10.761-.699 15.777-2.067-27.39-5.533-48.031-29.7-48.031-58.701v-.76c8.086 4.499 17.297 7.174 27.116 7.509-16.051-10.731-26.63-29.062-26.63-49.825 0-10.974 2.949-21.249 8.086-30.095 29.518 36.236 73.658 60.069 123.422 62.562-1.034-4.378-1.55-8.968-1.55-13.649 0-33.044 26.812-59.857 59.887-59.857 17.206 0 32.771 7.265 43.714 18.908a121.25 121.25 0 0 0 38.03-14.531c-4.469 13.984-13.953 25.718-26.326 33.135a120.032 120.032 0 0 0 34.382-9.424c-8.025 11.977-18.209 22.526-29.912 30.916z"/></symbol><symbol viewBox="0 0 512.002 512.002" id="user-male-outline" xmlns="http://www.w3.org/2000/svg"><path d="M466 511.999H46c-25.375 0-46-20.625-46-46l1.563-36.875c38.313-80.688 97.688-97.845 100.188-98.563l4.25-.563h30c24.25 0 44-19.75 44-44v-14.266c-11.875-15.25-20.688-31.766-26.281-49.188l-1.125-3.594c-18.281-16.609-22.844-43.563-11.281-64.531.313-.703 1.156-2.078 2.125-3.516l-.094-17.203c-.031-11.547-.031-23.063.125-34.578.906-21.891 6.844-41.203 17.156-56.297 12.188-18.234 32.563-32.125 55.813-38 22.75-5.781 47.782-6.375 72.219-1.719 21.875 4.172 40.625 13.922 54.156 28.219 16 16.906 25.155 41.641 25.78 69.656.095 12.594.063 24.969.063 37.344l-.031 12.688c.469.672.813 1.281 1.156 1.891 12.094 19.281 8.906 47-7.813 63.719l-2.625 2.422c-6.562 20.781-15.655 38.283-27.344 53.33V286c0 24.25 19.75 44 44 44l34.25.562c2.5.719 61.875 17.875 100.188 98.562l1.562 6.875v30c0 25.375-20.625 46-46 46zM32 439.655v26.344c0 7.719 6.281 14 14 14h420c7.719 0 14-6.281 14-14v-26.344c-28.531-57.656-67.844-74.531-76.531-77.656H376c-41.906 0-76-34.095-76-76v-25.142l3.75-4.469c11.406-13.531 20.031-29.844 25.656-48.453 1-6.188 6.281-10.734 8.812-12.906 7.375-7.297 8.656-18.438 4-25.906-2.219-3.203-5.938-8.391-5.562-15.766v-15.078c0-12.281.031-24.563-.063-36.828-.438-19.828-6.5-37-17.03-48.125-11.22-11.859-26.25-16.766-36.906-18.781-19.906-3.828-40.094-3.344-58.375 1.297-15.688 3.969-29.219 13.031-37.156 24.891-7 10.281-11 23.828-11.688 39.297-.125 10.906-.125 22.25-.094 33.609v19.578c.875 6.469-3.188 12.391-5.156 15.234-5.281 9.469-3.156 21.094 3.813 26.813 6.25 4.281 8.469 11.75 9.656 15.766 5.406 17 13.531 31.5 24.625 44.797l3.719 4.469v25.703c0 41.906-34.094 76-76 76h-27.469c-8.782 3.155-48.032 20-76.532 77.656z"/></symbol></svg>